<svg width="650" height="180" viewBox="0 0 650 180" fill="none" xmlns="http://www.w3.org/2000/svg">
<g clip-path="url(#clip0)">
<path d="M650 90C650 40.3707 609.767 0.138092 560.138 0.138092H19.9999C8.95424 0.138092 -6.10352e-05 9.0924 -6.10352e-05 20.1381V159.862C-6.10352e-05 170.908 8.95424 179.862 19.9999 179.862H560.138C609.767 179.862 650 139.629 650 90V90Z" fill="black" fill-opacity="0.1"/>
<path d="M215.374 119.5L219.692 106.233H240.687L245.005 119.5H258.187L238.13 61.3182H222.278L202.192 119.5H215.374ZM222.817 96.6307L229.977 74.6136H230.431L237.59 96.6307H222.817ZM264.962 119.5H277.065V94.8125C277.065 89.4432 280.985 85.75 286.326 85.75C288.002 85.75 290.303 86.0341 291.44 86.4034V75.6648C290.36 75.4091 288.854 75.2386 287.633 75.2386C282.746 75.2386 278.741 78.0795 277.15 83.4773H276.695V75.8636H264.962V119.5ZM315.381 120.352C327.001 120.352 334.302 113.534 334.87 103.506H323.45C322.739 108.165 319.671 110.778 315.523 110.778C309.87 110.778 306.205 106.034 306.205 97.6818C306.205 89.4432 309.898 84.7273 315.523 84.7273C319.955 84.7273 322.796 87.6534 323.45 92H334.87C334.359 81.9148 326.717 75.2955 315.325 75.2955C302.086 75.2955 293.904 84.4716 293.904 97.8523C293.904 111.119 301.944 120.352 315.381 120.352ZM354.721 94.2727C354.749 88.6477 358.187 85.3523 363.13 85.3523C368.045 85.3523 370.942 88.5057 370.914 93.875V119.5H383.016V91.7159C383.045 81.4886 377.022 75.2955 367.931 75.2955C361.312 75.2955 356.88 78.4205 354.891 83.5625H354.38V61.3182H342.619V119.5H354.721V94.2727ZM392.54 119.5H404.643V75.8636H392.54V119.5ZM398.62 70.2386C402.228 70.2386 405.183 67.483 405.183 64.1023C405.183 60.75 402.228 57.9943 398.62 57.9943C395.04 57.9943 392.086 60.75 392.086 64.1023C392.086 67.483 395.04 70.2386 398.62 70.2386ZM455.019 75.8636H442.207L433.173 107.085H432.718L423.656 75.8636H410.871L426.127 119.5H439.763L455.019 75.8636ZM479.614 120.352C490.41 120.352 497.683 115.097 499.387 107L488.194 106.261C486.972 109.585 483.847 111.318 479.813 111.318C473.762 111.318 469.927 107.312 469.927 100.807V100.778H499.643V97.4545C499.643 82.625 490.665 75.2955 479.131 75.2955C466.29 75.2955 457.967 84.4148 457.967 97.8807C457.967 111.716 466.177 120.352 479.614 120.352ZM469.927 93.2784C470.183 88.3068 473.961 84.3295 479.33 84.3295C484.586 84.3295 488.222 88.0795 488.251 93.2784H469.927Z" fill="black"/>
<path d="M138.75 40H51.25C44.3464 40 38.75 45.5964 38.75 52.5C38.75 59.4036 44.3464 65 51.25 65H138.75C145.654 65 151.25 59.4036 151.25 52.5C151.25 45.5964 145.654 40 138.75 40Z" stroke="black" stroke-width="10" stroke-linecap="round" stroke-linejoin="round"/>
<path d="M51.25 65V127.5C51.25 130.815 52.567 133.995 54.9112 136.339C57.2554 138.683 60.4348 140 63.75 140H126.25C129.565 140 132.745 138.683 135.089 136.339C137.433 133.995 138.75 130.815 138.75 127.5V65" stroke="black" stroke-width="10" stroke-linecap="round" stroke-linejoin="round"/>
<path d="M82.5 90H107.5" stroke="black" stroke-width="10" stroke-linecap="round" stroke-linejoin="round"/>
</g>
<defs>
<clipPath id="clip0">
<rect width="650" height="180" fill="white"/>
</clipPath>
</defs>
</svg>
