<svg width="650" height="180" viewBox="0 0 650 180" fill="none" xmlns="http://www.w3.org/2000/svg">
<g clip-path="url(#clip0)">
<path d="M650 90C650 40.3707 609.767 0.138092 560.138 0.138092H19.9999C8.95424 0.138092 -6.10352e-05 9.0924 -6.10352e-05 20.1381V159.862C-6.10352e-05 170.908 8.95424 179.862 19.9999 179.862H560.138C609.767 179.862 650 139.629 650 90V90Z" fill="#E255A1" fill-opacity="0.1"/>
<path d="M216.817 126.5H247.89C264.225 126.5 272.925 117.977 272.925 106.401C272.925 95.6406 265.219 89.142 256.945 88.7514V88.0412C264.509 86.3366 270.084 80.9744 270.084 72.4162C270.084 61.5142 261.988 53.7727 245.936 53.7727H216.817V126.5ZM232.194 113.929V94.6108H245.084C252.471 94.6108 257.051 98.8722 257.051 104.874C257.051 110.342 253.323 113.929 244.729 113.929H232.194ZM232.194 84.206V66.2017H243.877C250.695 66.2017 254.566 69.7173 254.566 74.973C254.566 80.7259 249.878 84.206 243.593 84.206H232.194ZM307.291 127.565C323.839 127.565 334.138 116.237 334.138 99.4403C334.138 82.5369 323.839 71.2443 307.291 71.2443C290.743 71.2443 280.445 82.5369 280.445 99.4403C280.445 116.237 290.743 127.565 307.291 127.565ZM307.362 115.847C299.727 115.847 295.821 108.851 295.821 99.3338C295.821 89.8168 299.727 82.7855 307.362 82.7855C314.855 82.7855 318.761 89.8168 318.761 99.3338C318.761 108.851 314.855 115.847 307.362 115.847ZM359.102 94.9659C359.138 87.9347 363.328 83.8153 369.436 83.8153C375.509 83.8153 379.166 87.7926 379.131 94.4688V126.5H394.259V91.7699C394.259 79.0568 386.801 71.2443 375.438 71.2443C367.341 71.2443 361.482 75.2216 359.031 81.5781H358.392V71.9545H343.974V126.5H359.102V94.9659ZM441.16 103.276C441.196 110.591 436.189 114.426 430.755 114.426C425.038 114.426 421.345 110.413 421.309 103.986V71.9545H406.181V106.685C406.217 119.433 413.674 127.21 424.647 127.21C432.85 127.21 438.745 122.984 441.196 116.592H441.764V126.5H456.288V71.9545H441.16V103.276ZM513.772 87.5085C512.423 77.4588 504.326 71.2443 490.548 71.2443C476.592 71.2443 467.394 77.7074 467.43 88.2188C467.394 96.3864 472.543 101.678 483.197 103.808L492.643 105.69C497.401 106.649 499.567 108.389 499.638 111.124C499.567 114.355 496.052 116.663 490.761 116.663C485.363 116.663 481.776 114.355 480.853 109.916L465.974 110.697C467.394 121.138 476.272 127.565 490.725 127.565C504.859 127.565 514.979 120.357 515.015 109.597C514.979 101.713 509.83 96.9901 499.248 94.8239L489.376 92.8352C484.298 91.7344 482.415 89.9943 482.451 87.3665C482.415 84.0994 486.109 81.9688 490.796 81.9688C496.052 81.9688 499.177 84.8452 499.923 88.3608L513.772 87.5085Z" fill="#E255A1"/>
<path d="M145 65H45C41.5482 65 38.75 67.7982 38.75 71.25V83.75C38.75 87.2019 41.5482 90 45 90H145C148.452 90 151.25 87.2019 151.25 83.75V71.25C151.25 67.7982 148.452 65 145 65Z" stroke="#E255A1" stroke-width="10" stroke-linecap="round" stroke-linejoin="round"/>
<path d="M95 65V146.25" stroke="#E255A1" stroke-width="10" stroke-linecap="round" stroke-linejoin="round"/>
<path d="M138.75 90V133.75C138.75 137.065 137.433 140.244 135.089 142.589C132.744 144.933 129.565 146.25 126.25 146.25H63.75C60.4348 146.25 57.2554 144.933 54.9112 142.589C52.5669 140.244 51.25 137.065 51.25 133.75V90" stroke="#E255A1" stroke-width="10" stroke-linecap="round" stroke-linejoin="round"/>
<path d="M66.875 64.9997C62.731 64.9997 58.7567 63.3535 55.8264 60.4232C52.8962 57.4929 51.25 53.5187 51.25 49.3747C51.25 45.2307 52.8962 41.2564 55.8264 38.3261C58.7567 35.3959 62.731 33.7497 66.875 33.7497C72.9043 33.6446 78.8127 36.5701 83.8294 42.1444C88.8462 47.7188 92.7394 55.6834 95 64.9997C97.2606 55.6834 101.154 47.7188 106.171 42.1444C111.188 36.5701 117.096 33.6446 123.125 33.7497C127.269 33.7497 131.243 35.3959 134.174 38.3261C137.104 41.2564 138.75 45.2307 138.75 49.3747C138.75 53.5187 137.104 57.4929 134.174 60.4232C131.243 63.3535 127.269 64.9997 123.125 64.9997" stroke="#E255A1" stroke-width="10" stroke-linecap="round" stroke-linejoin="round"/>
</g>
<defs>
<clipPath id="clip0">
<rect width="650" height="180" fill="white"/>
</clipPath>
</defs>
</svg>
