<svg width="650" height="180" viewBox="0 0 650 180" fill="none" xmlns="http://www.w3.org/2000/svg">
<g clip-path="url(#clip0)">
<path d="M650 90C650 40.3707 609.767 0.138092 560.138 0.138092H19.9999C8.95424 0.138092 -6.10352e-05 9.0924 -6.10352e-05 20.1381V159.862C-6.10352e-05 170.908 8.95424 179.862 19.9999 179.862H560.138C609.767 179.862 650 139.629 650 90V90Z" fill="#979A9B" fill-opacity="0.1"/>
<path d="M216.166 119.5C233.893 119.5 244.632 108.534 244.632 90.3523C244.632 72.2273 233.893 61.3182 216.337 61.3182H195.541V119.5H216.166ZM207.842 108.96V71.858H215.683C226.592 71.858 232.359 77.4261 232.359 90.3523C232.359 103.335 226.592 108.96 215.655 108.96H207.842ZM265.96 120.324C272.409 120.324 276.585 117.511 278.716 113.449H279.057V119.5H290.534V90.0682C290.534 79.6705 281.727 75.2955 272.011 75.2955C261.557 75.2955 254.682 80.2955 253.006 88.25L264.199 89.1591C265.023 86.2614 267.608 84.1307 271.955 84.1307C276.074 84.1307 278.432 86.2045 278.432 89.7841V89.9545C278.432 92.767 275.449 93.1364 267.864 93.875C259.227 94.6705 251.472 97.5682 251.472 107.312C251.472 115.949 257.636 120.324 265.96 120.324ZM269.426 111.972C265.705 111.972 263.034 110.239 263.034 106.915C263.034 103.506 265.847 101.83 270.108 101.233C272.75 100.864 277.068 100.239 278.517 99.2727V103.903C278.517 108.477 274.739 111.972 269.426 111.972ZM323.134 75.8636H314.923V65.4091H302.821V75.8636H296.855V84.9545H302.821V107.682C302.764 116.233 308.588 120.466 317.366 120.097C320.491 119.983 322.707 119.358 323.929 118.96L322.026 109.955C321.429 110.068 320.151 110.352 319.014 110.352C316.599 110.352 314.923 109.443 314.923 106.091V84.9545H323.134V75.8636ZM343.46 120.324C349.909 120.324 354.085 117.511 356.216 113.449H356.557V119.5H368.034V90.0682C368.034 79.6705 359.227 75.2955 349.511 75.2955C339.057 75.2955 332.182 80.2955 330.506 88.25L341.699 89.1591C342.523 86.2614 345.108 84.1307 349.455 84.1307C353.574 84.1307 355.932 86.2045 355.932 89.7841V89.9545C355.932 92.767 352.949 93.1364 345.364 93.875C336.727 94.6705 328.972 97.5682 328.972 107.312C328.972 115.949 335.136 120.324 343.46 120.324ZM346.926 111.972C343.205 111.972 340.534 110.239 340.534 106.915C340.534 103.506 343.347 101.83 347.608 101.233C350.25 100.864 354.568 100.239 356.017 99.2727V103.903C356.017 108.477 352.239 111.972 346.926 111.972ZM377.651 119.5H389.582V112.511H390.122C391.798 116.148 395.463 120.21 402.509 120.21C412.452 120.21 420.207 112.341 420.207 97.7386C420.207 82.7386 412.111 75.2955 402.537 75.2955C395.236 75.2955 391.741 79.642 390.122 83.1932H389.753V61.3182H377.651V119.5ZM389.497 97.6818C389.497 89.8977 392.793 84.9261 398.673 84.9261C404.668 84.9261 407.849 90.125 407.849 97.6818C407.849 105.295 404.611 110.58 398.673 110.58C392.849 110.58 389.497 105.466 389.497 97.6818ZM440.726 120.324C447.175 120.324 451.351 117.511 453.482 113.449H453.822V119.5H465.3V90.0682C465.3 79.6705 456.493 75.2955 446.777 75.2955C436.322 75.2955 429.447 80.2955 427.771 88.25L438.964 89.1591C439.788 86.2614 442.374 84.1307 446.72 84.1307C450.839 84.1307 453.197 86.2045 453.197 89.7841V89.9545C453.197 92.767 450.214 93.1364 442.629 93.875C433.993 94.6705 426.237 97.5682 426.237 107.312C426.237 115.949 432.402 120.324 440.726 120.324ZM444.192 111.972C440.47 111.972 437.8 110.239 437.8 106.915C437.8 103.506 440.612 101.83 444.874 101.233C447.516 100.864 451.834 100.239 453.283 99.2727V103.903C453.283 108.477 449.504 111.972 444.192 111.972ZM510.996 88.3068C509.916 80.267 503.439 75.2955 492.416 75.2955C481.251 75.2955 473.893 80.4659 473.922 88.875C473.893 95.4091 478.013 99.642 486.536 101.347L494.092 102.852C497.899 103.619 499.632 105.011 499.689 107.199C499.632 109.784 496.82 111.631 492.587 111.631C488.268 111.631 485.399 109.784 484.661 106.233L472.757 106.858C473.893 115.21 480.996 120.352 492.558 120.352C503.865 120.352 511.962 114.585 511.99 105.977C511.962 99.6705 507.842 95.892 499.376 94.1591L491.479 92.5682C487.416 91.6875 485.911 90.2955 485.939 88.1932C485.911 85.5795 488.865 83.875 492.615 83.875C496.82 83.875 499.32 86.1761 499.916 88.9886L510.996 88.3068ZM539.497 120.352C550.293 120.352 557.565 115.097 559.27 107L548.077 106.261C546.855 109.585 543.73 111.318 539.696 111.318C533.645 111.318 529.81 107.312 529.81 100.807V100.778H559.526V97.4545C559.526 82.625 550.548 75.2955 539.014 75.2955C526.173 75.2955 517.849 84.4148 517.849 97.8807C517.849 111.716 526.06 120.352 539.497 120.352ZM529.81 93.2784C530.065 88.3068 533.844 84.3295 539.213 84.3295C544.469 84.3295 548.105 88.0795 548.134 93.2784H529.81ZM603.73 88.3068C602.651 80.267 596.173 75.2955 585.151 75.2955C573.986 75.2955 566.628 80.4659 566.656 88.875C566.628 95.4091 570.747 99.642 579.27 101.347L586.827 102.852C590.634 103.619 592.366 105.011 592.423 107.199C592.366 109.784 589.554 111.631 585.321 111.631C581.003 111.631 578.134 109.784 577.395 106.233L565.491 106.858C566.628 115.21 573.73 120.352 585.293 120.352C596.599 120.352 604.696 114.585 604.724 105.977C604.696 99.6705 600.577 95.892 592.111 94.1591L584.213 92.5682C580.151 91.6875 578.645 90.2955 578.673 88.1932C578.645 85.5795 581.599 83.875 585.349 83.875C589.554 83.875 592.054 86.1761 592.651 88.9886L603.73 88.3068Z" fill="#979A9B"/>
<path d="M95 71.25C122.614 71.25 145 62.8553 145 52.5C145 42.1447 122.614 33.75 95 33.75C67.3857 33.75 45 42.1447 45 52.5C45 62.8553 67.3857 71.25 95 71.25Z" stroke="#979A9B" stroke-width="10" stroke-linecap="round" stroke-linejoin="round"/>
<path d="M45 52.5V90C45 94.9725 50.2678 99.7419 59.6447 103.258C69.0215 106.774 81.7392 108.75 95 108.75C108.261 108.75 120.979 106.774 130.356 103.258C139.732 99.7419 145 94.9725 145 90V52.5" stroke="#979A9B" stroke-width="10" stroke-linecap="round" stroke-linejoin="round"/>
<path d="M45 90V127.5C45 132.472 50.2678 137.242 59.6447 140.758C69.0215 144.274 81.7392 146.25 95 146.25C108.261 146.25 120.979 144.274 130.356 140.758C139.732 137.242 145 132.472 145 127.5V90" stroke="#979A9B" stroke-width="10" stroke-linecap="round" stroke-linejoin="round"/>
</g>
<defs>
<clipPath id="clip0">
<rect width="650" height="180" fill="white"/>
</clipPath>
</defs>
</svg>
