<svg width="650" height="180" viewBox="0 0 650 180" fill="none" xmlns="http://www.w3.org/2000/svg">
<g clip-path="url(#clip0)">
<path d="M650 90C650 40.3707 609.768 0.138092 560.138 0.138092H20C8.95431 0.138092 0 9.0924 0 20.1381V159.862C0 170.908 8.9543 179.862 20 179.862H560.138C609.768 179.862 650 139.629 650 90V90Z" fill="#FFA344" fill-opacity="0.1"/>
<path d="M195.354 119.5H207.655V95.4659H231.32V85.3239H207.655V71.4602H233.876V61.3182H195.354V119.5ZM241.923 119.5H254.026V75.8636H241.923V119.5ZM248.003 70.2386C251.611 70.2386 254.565 67.483 254.565 64.1023C254.565 60.75 251.611 57.9943 248.003 57.9943C244.423 57.9943 241.469 60.75 241.469 64.1023C241.469 67.483 244.423 70.2386 248.003 70.2386ZM275.822 94.2727C275.851 88.6477 279.203 85.3523 284.089 85.3523C288.947 85.3523 291.874 88.5341 291.845 93.875V119.5H303.947V91.7159C303.947 81.5455 297.982 75.2955 288.891 75.2955C282.413 75.2955 277.726 78.4773 275.766 83.5625H275.254V75.8636H263.72V119.5H275.822V94.2727ZM325.929 120.324C332.378 120.324 336.554 117.511 338.685 113.449H339.026V119.5H350.503V90.0682C350.503 79.6705 341.696 75.2955 331.98 75.2955C321.526 75.2955 314.651 80.2955 312.974 88.25L324.168 89.1591C324.991 86.2614 327.577 84.1307 331.923 84.1307C336.043 84.1307 338.401 86.2045 338.401 89.7841V89.9545C338.401 92.767 335.418 93.1364 327.832 93.875C319.196 94.6705 311.44 97.5682 311.44 107.312C311.44 115.949 317.605 120.324 325.929 120.324ZM329.395 111.972C325.673 111.972 323.003 110.239 323.003 106.915C323.003 103.506 325.815 101.83 330.077 101.233C332.719 100.864 337.037 100.239 338.486 99.2727V103.903C338.486 108.477 334.707 111.972 329.395 111.972ZM371.994 94.2727C372.023 88.6477 375.375 85.3523 380.261 85.3523C385.119 85.3523 388.045 88.5341 388.017 93.875V119.5H400.119V91.7159C400.119 81.5455 394.153 75.2955 385.062 75.2955C378.585 75.2955 373.898 78.4773 371.938 83.5625H371.426V75.8636H359.892V119.5H371.994V94.2727ZM429.374 120.352C440.993 120.352 448.294 113.534 448.862 103.506H437.442C436.732 108.165 433.663 110.778 429.516 110.778C423.862 110.778 420.197 106.034 420.197 97.6818C420.197 89.4432 423.891 84.7273 429.516 84.7273C433.947 84.7273 436.788 87.6534 437.442 92H448.862C448.351 81.9148 440.709 75.2955 429.317 75.2955C416.078 75.2955 407.896 84.4716 407.896 97.8523C407.896 111.119 415.936 120.352 429.374 120.352ZM456.611 119.5H468.713V75.8636H456.611V119.5ZM462.69 70.2386C466.298 70.2386 469.253 67.483 469.253 64.1023C469.253 60.75 466.298 57.9943 462.69 57.9943C459.111 57.9943 456.156 60.75 456.156 64.1023C456.156 67.483 459.111 70.2386 462.69 70.2386ZM490.851 120.324C497.3 120.324 501.476 117.511 503.607 113.449H503.947V119.5H515.425V90.0682C515.425 79.6705 506.618 75.2955 496.902 75.2955C486.447 75.2955 479.572 80.2955 477.896 88.25L489.089 89.1591C489.913 86.2614 492.499 84.1307 496.845 84.1307C500.964 84.1307 503.322 86.2045 503.322 89.7841V89.9545C503.322 92.767 500.339 93.1364 492.754 93.875C484.118 94.6705 476.362 97.5682 476.362 107.312C476.362 115.949 482.527 120.324 490.851 120.324ZM494.317 111.972C490.595 111.972 487.925 110.239 487.925 106.915C487.925 103.506 490.737 101.83 494.999 101.233C497.641 100.864 501.959 100.239 503.408 99.2727V103.903C503.408 108.477 499.629 111.972 494.317 111.972ZM536.916 61.3182H524.814V119.5H536.916V61.3182ZM582.918 88.3068C581.838 80.267 575.361 75.2955 564.338 75.2955C553.173 75.2955 545.815 80.4659 545.844 88.875C545.815 95.4091 549.935 99.642 558.457 101.347L566.014 102.852C569.821 103.619 571.554 105.011 571.611 107.199C571.554 109.784 568.741 111.631 564.509 111.631C560.19 111.631 557.321 109.784 556.582 106.233L544.679 106.858C545.815 115.21 552.918 120.352 564.48 120.352C575.787 120.352 583.884 114.585 583.912 105.977C583.884 99.6705 579.764 95.892 571.298 94.1591L563.401 92.5682C559.338 91.6875 557.832 90.2955 557.861 88.1932C557.832 85.5795 560.787 83.875 564.537 83.875C568.741 83.875 571.241 86.1761 571.838 88.9886L582.918 88.3068Z" fill="#FFA344"/>
<path d="M95 146.25C126.066 146.25 151.25 121.066 151.25 90C151.25 58.934 126.066 33.75 95 33.75C63.934 33.75 38.75 58.934 38.75 90C38.75 121.066 63.934 146.25 95 146.25Z" stroke="#FFA344" stroke-width="10" stroke-linecap="round" stroke-linejoin="round"/>
<path d="M112.5 71.2498C111.368 69.2858 109.723 67.6668 107.741 66.5658C105.759 65.4649 103.516 64.9236 101.25 64.9998H88.75C85.435 64.9998 82.2554 66.3168 79.9112 68.661C77.5669 71.0052 76.25 74.1846 76.25 77.4998C76.25 80.815 77.5669 83.9944 79.9112 86.3388C82.2554 88.6831 85.435 90 88.75 90H101.25C104.565 90 107.744 91.3169 110.089 93.6613C112.433 96.005 113.75 99.1844 113.75 102.5C113.75 105.815 112.433 108.994 110.089 111.339C107.744 113.683 104.565 115 101.25 115H88.75C86.4844 115.076 84.2406 114.535 82.2589 113.434C80.2772 112.333 78.6322 110.714 77.5 108.75" stroke="#FFA344" stroke-width="10" stroke-linecap="round" stroke-linejoin="round"/>
<path d="M95 115V127.5V115ZM95 52.5V65V52.5Z" stroke="#FFA344" stroke-width="10" stroke-linecap="round" stroke-linejoin="round"/>
</g>
<defs>
<clipPath id="clip0">
<rect width="650" height="180" fill="white"/>
</clipPath>
</defs>
</svg>
