<svg width="650" height="180" viewBox="0 0 650 180" fill="none" xmlns="http://www.w3.org/2000/svg">
<g clip-path="url(#clip0)">
<path d="M650 90C650 40.3707 609.767 0.138092 560.138 0.138092H19.9999C8.95424 0.138092 -6.10352e-05 9.0924 -6.10352e-05 20.1381V159.862C-6.10352e-05 170.908 8.95424 179.862 19.9999 179.862H560.138C609.767 179.862 650 139.629 650 90V90Z" fill="#FFDC49" fill-opacity="0.1"/>
<path d="M274.809 77.2812H290.434C288.445 62.8991 275.768 52.7784 259.326 52.7784C240.115 52.7784 225.306 66.6278 225.306 90.2074C225.306 113.219 239.156 127.494 259.646 127.494C278.005 127.494 291.109 115.882 291.109 96.7415V87.5795H260.676V99.1562H276.301C276.088 108.176 269.944 113.893 259.717 113.893C248.176 113.893 240.896 105.264 240.896 90.0653C240.896 74.9375 248.46 66.3793 259.575 66.3793C267.494 66.3793 272.856 70.4631 274.809 77.2812ZM302.375 126.5H317.503V95.6406C317.503 88.929 322.403 84.3125 329.079 84.3125C331.175 84.3125 334.051 84.6676 335.471 85.1293V71.706C334.122 71.3864 332.24 71.1733 330.713 71.1733C324.605 71.1733 319.598 74.7244 317.609 81.4716H317.041V71.9545H302.375V126.5ZM365.399 127.565C381.947 127.565 392.245 116.237 392.245 99.4403C392.245 82.5369 381.947 71.2443 365.399 71.2443C348.85 71.2443 338.552 82.5369 338.552 99.4403C338.552 116.237 348.85 127.565 365.399 127.565ZM365.47 115.847C357.835 115.847 353.928 108.851 353.928 99.3338C353.928 89.8168 357.835 82.7855 365.47 82.7855C372.963 82.7855 376.869 89.8168 376.869 99.3338C376.869 108.851 372.963 115.847 365.47 115.847ZM411.475 126.5H427.455L436.83 92.196H437.504L446.879 126.5H462.895L477.703 71.9545H462.433L454.124 108.389H453.662L444.713 71.9545H429.692L420.885 108.602H420.388L411.936 71.9545H396.631L411.475 126.5Z" fill="#FFDC49"/>
<path d="M45 133.75L70 96.25L95 108.75L120 77.5L145 102.5V133.75H45Z" stroke="#FFDC49" stroke-width="10" stroke-linecap="round" stroke-linejoin="round"/>
<path d="M45 90L63.75 65L88.75 77.5L120 40L145 65" stroke="#FFDC49" stroke-width="10" stroke-linecap="round" stroke-linejoin="round"/>
</g>
<defs>
<clipPath id="clip0">
<rect width="650" height="180" fill="white"/>
</clipPath>
</defs>
</svg>
