<svg width="650" height="180" viewBox="0 0 650 180" fill="none" xmlns="http://www.w3.org/2000/svg">
<g clip-path="url(#clip0)">
<path d="M650 90C650 40.3707 609.768 0.138092 560.138 0.138092H20C8.95431 0.138092 0 9.0924 0 20.1381V159.862C0 170.908 8.9543 179.862 20 179.862H560.138C609.768 179.862 650 139.629 650 90V90Z" fill="#FF7369" fill-opacity="0.1"/>
<path d="M226.364 126.5H241.74V96.4574H272.955V126.5H288.296V53.7727H272.955V83.7798H241.74V53.7727H226.364V126.5ZM325.334 127.565C341.882 127.565 352.181 116.237 352.181 99.4403C352.181 82.5369 341.882 71.2443 325.334 71.2443C308.786 71.2443 298.488 82.5369 298.488 99.4403C298.488 116.237 308.786 127.565 325.334 127.565ZM325.405 115.847C317.77 115.847 313.864 108.851 313.864 99.3338C313.864 89.8168 317.77 82.7855 325.405 82.7855C332.898 82.7855 336.804 89.8168 336.804 99.3338C336.804 108.851 332.898 115.847 325.405 115.847ZM362.017 126.5H377.145V93.7585C377.145 87.7216 380.98 83.7088 386.023 83.7088C390.995 83.7088 394.333 87.1179 394.333 92.4801V126.5H408.999V93.1903C408.999 87.544 412.23 83.7088 417.735 83.7088C422.564 83.7088 426.186 86.7273 426.186 92.7997V126.5H441.279V89.8168C441.279 77.9915 434.248 71.2443 424.091 71.2443C416.101 71.2443 409.887 75.3281 407.65 81.5781H407.081C405.341 75.2571 399.766 71.2443 392.273 71.2443C384.922 71.2443 379.347 75.1506 377.074 81.5781H376.435V71.9545H362.017V126.5ZM478.086 127.565C491.581 127.565 500.672 120.996 502.802 110.875L488.811 109.952C487.284 114.107 483.377 116.273 478.335 116.273C470.771 116.273 465.977 111.266 465.977 103.134V103.098H503.122V98.9432C503.122 80.4062 491.9 71.2443 477.483 71.2443C461.431 71.2443 451.027 82.6435 451.027 99.4759C451.027 116.77 461.289 127.565 478.086 127.565ZM465.977 93.723C466.297 87.5085 471.02 82.5369 477.731 82.5369C484.301 82.5369 488.846 87.2244 488.882 93.723H465.977Z" fill="#FF7369"/>
<path d="M51.25 90H38.75L95 33.75L151.25 90H138.75" stroke="#FF7369" stroke-width="10" stroke-linecap="round" stroke-linejoin="round"/>
<path d="M51.25 90V133.75C51.25 137.065 52.5669 140.244 54.9112 142.589C57.2554 144.933 60.4348 146.25 63.75 146.25H126.25C129.565 146.25 132.744 144.933 135.089 142.589C137.433 140.244 138.75 137.065 138.75 133.75V90" stroke="#FF7369" stroke-width="10" stroke-linecap="round" stroke-linejoin="round"/>
<path d="M76.25 146.25V108.75C76.25 105.435 77.5669 102.256 79.9112 99.9113C82.2554 97.5669 85.435 96.25 88.75 96.25H101.25C104.565 96.25 107.744 97.5669 110.089 99.9113C112.433 102.256 113.75 105.435 113.75 108.75V146.25" stroke="#FF7369" stroke-width="10" stroke-linecap="round" stroke-linejoin="round"/>
</g>
<defs>
<clipPath id="clip0">
<rect width="650" height="180" fill="white"/>
</clipPath>
</defs>
</svg>
