<svg width="650" height="180" viewBox="0 0 650 180" fill="none" xmlns="http://www.w3.org/2000/svg">
<g clip-path="url(#clip0)">
<path d="M650 90C650 40.3707 609.767 0.138092 560.138 0.138092H19.9999C8.95424 0.138092 -6.10352e-05 9.0924 -6.10352e-05 20.1381V159.862C-6.10352e-05 170.908 8.95424 179.862 19.9999 179.862H560.138C609.767 179.862 650 139.629 650 90V90Z" fill="#4DAB9A" fill-opacity="0.1"/>
<path d="M226.694 126.5H273.249V113.822H242.07V53.7727H226.694V126.5ZM298.702 127.53C306.763 127.53 311.983 124.014 314.647 118.936H315.073V126.5H329.42V89.7102C329.42 76.7131 318.411 71.2443 306.266 71.2443C293.198 71.2443 284.604 77.4943 282.509 87.4375L296.501 88.5739C297.53 84.9517 300.762 82.2884 306.195 82.2884C311.344 82.2884 314.292 84.8807 314.292 89.3551V89.5682C314.292 93.0838 310.563 93.5455 301.081 94.4688C290.286 95.4631 280.591 99.0852 280.591 111.266C280.591 122.061 288.297 127.53 298.702 127.53ZM303.035 117.089C298.383 117.089 295.045 114.923 295.045 110.768C295.045 106.507 298.56 104.412 303.887 103.666C307.189 103.205 312.587 102.423 314.398 101.216V107.004C314.398 112.722 309.675 117.089 303.035 117.089ZM376.135 103.276C376.17 110.591 371.163 114.426 365.73 114.426C360.013 114.426 356.319 110.413 356.284 103.986V71.9545H341.156V106.685C341.192 119.433 348.649 127.21 359.622 127.21C367.825 127.21 373.72 122.984 376.17 116.592H376.738V126.5H391.263V71.9545H376.135V103.276ZM418.491 94.9659C418.526 87.9347 422.717 83.8153 428.825 83.8153C434.897 83.8153 438.555 87.7926 438.519 94.4688V126.5H453.647V91.7699C453.647 79.0568 446.19 71.2443 434.826 71.2443C426.73 71.2443 420.87 75.2216 418.42 81.5781H417.781V71.9545H403.363V126.5H418.491V94.9659ZM490.215 127.565C504.739 127.565 513.866 119.043 514.576 106.507H500.3C499.412 112.331 495.577 115.598 490.393 115.598C483.326 115.598 478.745 109.668 478.745 99.2273C478.745 88.929 483.361 83.0341 490.393 83.0341C495.932 83.0341 499.483 86.6918 500.3 92.125H514.576C513.937 79.5185 504.384 71.2443 490.144 71.2443C473.596 71.2443 463.368 82.7145 463.368 99.4403C463.368 116.024 473.418 127.565 490.215 127.565ZM539.389 94.9659C539.425 87.9347 543.722 83.8153 549.901 83.8153C556.044 83.8153 559.666 87.7571 559.631 94.4688V126.5H574.759V91.7699C574.794 78.9858 567.266 71.2443 555.902 71.2443C547.628 71.2443 542.088 75.1506 539.602 81.5781H538.963V53.7727H524.262V126.5H539.389V94.9659Z" fill="#4DAB9A"/>
<path d="M45 96.25C56.1443 97.5744 66.5191 102.609 74.4547 110.545C82.3904 118.481 87.4256 128.856 88.75 140C94.2744 136.815 98.8956 132.274 102.176 126.806C105.458 121.338 107.289 115.123 107.5 108.75C117.994 105.058 127.159 98.3375 133.833 89.4375C140.508 80.5375 144.394 69.8584 145 58.75C145 53.7772 143.024 49.0081 139.508 45.4918C135.992 41.9754 131.222 40 126.25 40C115.142 40.6057 104.463 44.4917 95.5625 51.1666C86.6625 57.8415 79.9418 67.0056 76.25 77.5C69.8766 77.7106 63.6623 79.5425 58.1941 82.8237C52.7261 86.1044 48.1849 90.7256 45 96.25Z" stroke="#4DAB9A" stroke-width="10" stroke-linecap="round" stroke-linejoin="round"/>
<path d="M63.7499 102.5C57.2451 106.173 51.9853 111.704 48.6447 118.385C45.3041 125.066 44.0349 132.593 44.9999 140C52.4072 140.965 59.9339 139.696 66.6151 136.355C73.2963 133.014 78.8276 127.755 82.4999 121.25" stroke="#4DAB9A" stroke-width="10" stroke-linecap="round" stroke-linejoin="round"/>
<path d="M113.75 77.5C117.202 77.5 120 74.7018 120 71.25C120 67.7982 117.202 65 113.75 65C110.298 65 107.5 67.7982 107.5 71.25C107.5 74.7018 110.298 77.5 113.75 77.5Z" stroke="#4DAB9A" stroke-width="10" stroke-linecap="round" stroke-linejoin="round"/>
</g>
<defs>
<clipPath id="clip0">
<rect width="650" height="180" fill="white"/>
</clipPath>
</defs>
</svg>
