<svg width="13" height="17" viewBox="0 0 13 17" fill="none" xmlns="http://www.w3.org/2000/svg">
<path fill-rule="evenodd" clip-rule="evenodd" d="M0.0610352 2.57266C0.0610352 2.04223 0.271749 1.53352 0.646821 1.15845C1.02189 0.783376 1.5306 0.572662 2.06104 0.572662H6.64704C7.17743 0.572776 7.68605 0.783564 8.06104 1.15866L11.475 4.57266C11.8501 4.94765 12.0609 5.45627 12.061 5.98666V14.5727C12.061 15.1031 11.8503 15.6118 11.4752 15.9869C11.1002 16.3619 10.5915 16.5727 10.061 16.5727H2.06104C1.5306 16.5727 1.02189 16.3619 0.646821 15.9869C0.271749 15.6118 0.0610352 15.1031 0.0610352 14.5727V2.57266ZM2.06104 8.57266C2.06104 8.30745 2.16639 8.05309 2.35393 7.86556C2.54146 7.67802 2.79582 7.57266 3.06104 7.57266H9.06104C9.32625 7.57266 9.58061 7.67802 9.76814 7.86556C9.95568 8.05309 10.061 8.30745 10.061 8.57266C10.061 8.83788 9.95568 9.09223 9.76814 9.27977C9.58061 9.46731 9.32625 9.57266 9.06104 9.57266H3.06104C2.79582 9.57266 2.54146 9.46731 2.35393 9.27977C2.16639 9.09223 2.06104 8.83788 2.06104 8.57266ZM3.06104 11.5727C2.79582 11.5727 2.54146 11.678 2.35393 11.8656C2.16639 12.0531 2.06104 12.3074 2.06104 12.5727C2.06104 12.8379 2.16639 13.0922 2.35393 13.2798C2.54146 13.4673 2.79582 13.5727 3.06104 13.5727H9.06104C9.32625 13.5727 9.58061 13.4673 9.76814 13.2798C9.95568 13.0922 10.061 12.8379 10.061 12.5727C10.061 12.3074 9.95568 12.0531 9.76814 11.8656C9.58061 11.678 9.32625 11.5727 9.06104 11.5727H3.06104Z" fill="#9A6DD7"/>
</svg>
