<svg width="650" height="180" viewBox="0 0 650 180" fill="none" xmlns="http://www.w3.org/2000/svg">
<g clip-path="url(#clip0)">
<path d="M650 90C650 40.3707 609.767 0.138092 560.138 0.138092H19.9999C8.95424 0.138092 -6.10352e-05 9.0924 -6.10352e-05 20.1381V159.862C-6.10352e-05 170.908 8.95424 179.862 19.9999 179.862H560.138C609.767 179.862 650 139.629 650 90V90Z" fill="#529CCA" fill-opacity="0.1"/>
<path d="M226.718 126.5H242.094V102.92H255.02C271.746 102.92 281.476 92.9418 281.476 78.4176C281.476 63.9645 271.923 53.7727 255.411 53.7727H226.718V126.5ZM242.094 90.598V66.3438H252.463C261.341 66.3438 265.638 71.1733 265.638 78.4176C265.638 85.6264 261.341 90.598 252.534 90.598H242.094ZM306.307 53.7727H291.18V126.5H306.307V53.7727ZM333.98 127.53C342.041 127.53 347.261 124.014 349.924 118.936H350.35V126.5H364.697V89.7102C364.697 76.7131 353.688 71.2443 341.544 71.2443C328.475 71.2443 319.882 77.4943 317.786 87.4375L331.778 88.5739C332.808 84.9517 336.039 82.2884 341.472 82.2884C346.622 82.2884 349.569 84.8807 349.569 89.3551V89.5682C349.569 93.0838 345.84 93.5455 336.359 94.4688C325.563 95.4631 315.869 99.0852 315.869 111.266C315.869 122.061 323.575 127.53 333.98 127.53ZM338.312 117.089C333.66 117.089 330.322 114.923 330.322 110.768C330.322 106.507 333.838 104.412 339.164 103.666C342.467 103.205 347.865 102.423 349.676 101.216V107.004C349.676 112.722 344.953 117.089 338.312 117.089ZM391.561 94.9659C391.597 87.9347 395.787 83.8153 401.895 83.8153C407.968 83.8153 411.625 87.7926 411.59 94.4688V126.5H426.718V91.7699C426.718 79.0568 419.26 71.2443 407.896 71.2443C399.8 71.2443 393.941 75.2216 391.49 81.5781H390.851V71.9545H376.433V126.5H391.561V94.9659Z" fill="#529CCA"/>
<path d="M76.25 46.25H63.75C60.4348 46.25 57.2554 47.5669 54.9112 49.9112C52.5669 52.2554 51.25 55.4348 51.25 58.75V133.75C51.25 137.065 52.5669 140.244 54.9112 142.589C57.2554 144.933 60.4348 146.25 63.75 146.25H126.25C129.565 146.25 132.744 144.933 135.089 142.589C137.433 140.244 138.75 137.065 138.75 133.75V58.75C138.75 55.4348 137.433 52.2554 135.089 49.9112C132.744 47.5669 129.565 46.25 126.25 46.25H113.75" stroke="#529CCA" stroke-width="10" stroke-linecap="round" stroke-linejoin="round"/>
<path d="M101.25 33.75H88.75C81.8464 33.75 76.25 39.3464 76.25 46.25C76.25 53.1536 81.8464 58.75 88.75 58.75H101.25C108.154 58.75 113.75 53.1536 113.75 46.25C113.75 39.3464 108.154 33.75 101.25 33.75Z" stroke="#529CCA" stroke-width="10" stroke-linecap="round" stroke-linejoin="round"/>
<path d="M76.25 90H76.3125" stroke="#529CCA" stroke-width="10" stroke-linecap="round" stroke-linejoin="round"/>
<path d="M101.25 90H113.75" stroke="#529CCA" stroke-width="10" stroke-linecap="round" stroke-linejoin="round"/>
<path d="M76.25 115H76.3125" stroke="#529CCA" stroke-width="10" stroke-linecap="round" stroke-linejoin="round"/>
<path d="M101.25 115H113.75" stroke="#529CCA" stroke-width="10" stroke-linecap="round" stroke-linejoin="round"/>
</g>
<defs>
<clipPath id="clip0">
<rect width="650" height="180" fill="white"/>
</clipPath>
</defs>
</svg>
