<svg width="650" height="180" viewBox="0 0 650 180" fill="none" xmlns="http://www.w3.org/2000/svg">
<g clip-path="url(#clip0)">
<path d="M650 90C650 40.3707 609.767 0.138092 560.138 0.138092H19.9999C8.95424 0.138092 -6.10352e-05 9.0924 -6.10352e-05 20.1381V159.862C-6.10352e-05 170.908 8.95424 179.862 19.9999 179.862H560.138C609.767 179.862 650 139.629 650 90V90Z" fill="#937264" fill-opacity="0.1"/>
<path d="M195.182 119.5H207.483V98.875H216.46L227.483 119.5H241.062L228.705 96.8864C235.324 94.0455 238.989 88.2784 238.989 80.3239C238.989 68.7614 231.347 61.3182 218.136 61.3182H195.182V119.5ZM207.483 88.9886V71.375H215.778C222.881 71.375 226.318 74.5284 226.318 80.3239C226.318 86.0909 222.881 88.9886 215.835 88.9886H207.483ZM266.638 120.352C277.433 120.352 284.706 115.097 286.411 107L275.217 106.261C273.996 109.585 270.871 111.318 266.837 111.318C260.786 111.318 256.95 107.312 256.95 100.807V100.778H286.666V97.4545C286.666 82.625 277.689 75.2955 266.155 75.2955C253.314 75.2955 244.99 84.4148 244.99 97.8807C244.99 111.716 253.2 120.352 266.638 120.352ZM256.95 93.2784C257.206 88.3068 260.984 84.3295 266.354 84.3295C271.609 84.3295 275.246 88.0795 275.274 93.2784H256.95ZM330.871 88.3068C329.791 80.267 323.314 75.2955 312.291 75.2955C301.126 75.2955 293.768 80.4659 293.797 88.875C293.768 95.4091 297.888 99.642 306.411 101.347L313.967 102.852C317.774 103.619 319.507 105.011 319.564 107.199C319.507 109.784 316.695 111.631 312.462 111.631C308.143 111.631 305.274 109.784 304.536 106.233L292.632 106.858C293.768 115.21 300.871 120.352 312.433 120.352C323.74 120.352 331.837 114.585 331.865 105.977C331.837 99.6705 327.717 95.892 319.251 94.1591L311.354 92.5682C307.291 91.6875 305.786 90.2955 305.814 88.1932C305.786 85.5795 308.74 83.875 312.49 83.875C316.695 83.875 319.195 86.1761 319.791 88.9886L330.871 88.3068ZM359.202 120.352C372.44 120.352 380.679 111.29 380.679 97.8523C380.679 84.3295 372.44 75.2955 359.202 75.2955C345.963 75.2955 337.724 84.3295 337.724 97.8523C337.724 111.29 345.963 120.352 359.202 120.352ZM359.259 110.977C353.151 110.977 350.026 105.381 350.026 97.767C350.026 90.1534 353.151 84.5284 359.259 84.5284C365.253 84.5284 368.378 90.1534 368.378 97.767C368.378 105.381 365.253 110.977 359.259 110.977ZM416.531 100.92C416.56 106.773 412.554 109.841 408.207 109.841C403.634 109.841 400.679 106.631 400.651 101.489V75.8636H388.548V103.648C388.577 113.847 394.543 120.068 403.321 120.068C409.884 120.068 414.599 116.688 416.56 111.574H417.014V119.5H428.634V75.8636H416.531V100.92ZM438.314 119.5H450.416V94.8125C450.416 89.4432 454.337 85.75 459.678 85.75C461.354 85.75 463.655 86.0341 464.791 86.4034V75.6648C463.712 75.4091 462.206 75.2386 460.984 75.2386C456.098 75.2386 452.092 78.0795 450.501 83.4773H450.047V75.8636H438.314V119.5ZM488.733 120.352C500.352 120.352 507.653 113.534 508.222 103.506H496.801C496.091 108.165 493.023 110.778 488.875 110.778C483.222 110.778 479.557 106.034 479.557 97.6818C479.557 89.4432 483.25 84.7273 488.875 84.7273C493.307 84.7273 496.148 87.6534 496.801 92H508.222C507.71 81.9148 500.068 75.2955 488.676 75.2955C475.438 75.2955 467.256 84.4716 467.256 97.8523C467.256 111.119 475.295 120.352 488.733 120.352ZM535.857 120.352C546.652 120.352 553.925 115.097 555.629 107L544.436 106.261C543.214 109.585 540.089 111.318 536.055 111.318C530.004 111.318 526.169 107.312 526.169 100.807V100.778H555.885V97.4545C555.885 82.625 546.908 75.2955 535.374 75.2955C522.533 75.2955 514.209 84.4148 514.209 97.8807C514.209 111.716 522.419 120.352 535.857 120.352ZM526.169 93.2784C526.425 88.3068 530.203 84.3295 535.572 84.3295C540.828 84.3295 544.464 88.0795 544.493 93.2784H526.169ZM600.089 88.3068C599.01 80.267 592.533 75.2955 581.51 75.2955C570.345 75.2955 562.987 80.4659 563.016 88.875C562.987 95.4091 567.107 99.642 575.629 101.347L583.186 102.852C586.993 103.619 588.726 105.011 588.783 107.199C588.726 109.784 585.913 111.631 581.68 111.631C577.362 111.631 574.493 109.784 573.754 106.233L561.851 106.858C562.987 115.21 570.089 120.352 581.652 120.352C592.959 120.352 601.055 114.585 601.084 105.977C601.055 99.6705 596.936 95.892 588.47 94.1591L580.572 92.5682C576.51 91.6875 575.004 90.2955 575.033 88.1932C575.004 85.5795 577.959 83.875 581.709 83.875C585.913 83.875 588.413 86.1761 589.01 88.9886L600.089 88.3068Z" fill="#937264"/>
<path d="M95 33.75L145 61.875V118.125L95 146.25L45 118.125V61.875L95 33.75Z" stroke="#937264" stroke-width="10" stroke-linecap="round" stroke-linejoin="round"/>
<path d="M95 90L145 61.875" stroke="#937264" stroke-width="10" stroke-linecap="round" stroke-linejoin="round"/>
<path d="M95 90V146.25" stroke="#937264" stroke-width="10" stroke-linecap="round" stroke-linejoin="round"/>
<path d="M95 90L45 61.875" stroke="#937264" stroke-width="10" stroke-linecap="round" stroke-linejoin="round"/>
<path d="M120 47.8125L70 75.9375" stroke="#937264" stroke-width="10" stroke-linecap="round" stroke-linejoin="round"/>
</g>
<defs>
<clipPath id="clip0">
<rect width="650" height="180" fill="white"/>
</clipPath>
</defs>
</svg>
