<svg width="17" height="17" viewBox="0 0 17 17" fill="none" xmlns="http://www.w3.org/2000/svg">
<path d="M9.39526 1.57266C9.39526 1.30745 9.28991 1.05309 9.10237 0.865556C8.91483 0.678019 8.66048 0.572662 8.39526 0.572662C8.13005 0.572662 7.87569 0.678019 7.68816 0.865556C7.50062 1.05309 7.39526 1.30745 7.39526 1.57266V2.57266C7.39526 2.83788 7.50062 3.09223 7.68816 3.27977C7.87569 3.46731 8.13005 3.57266 8.39526 3.57266C8.66048 3.57266 8.91483 3.46731 9.10237 3.27977C9.28991 3.09223 9.39526 2.83788 9.39526 2.57266V1.57266ZM14.0523 4.32966C14.2344 4.14106 14.3352 3.88846 14.3329 3.62626C14.3307 3.36406 14.2255 3.11325 14.0401 2.92784C13.8547 2.74244 13.6039 2.63727 13.3417 2.63499C13.0795 2.63271 12.8269 2.7335 12.6383 2.91566L11.9313 3.62266C11.7491 3.81126 11.6483 4.06387 11.6506 4.32606C11.6529 4.58826 11.758 4.83907 11.9434 5.02448C12.1289 5.20989 12.3797 5.31506 12.6419 5.31734C12.9041 5.31961 13.1567 5.21882 13.3453 5.03666L14.0523 4.32966ZM16.3953 8.57266C16.3953 8.83788 16.2899 9.09223 16.1024 9.27977C15.9148 9.46731 15.6605 9.57266 15.3953 9.57266H14.3953C14.13 9.57266 13.8757 9.46731 13.6882 9.27977C13.5006 9.09223 13.3953 8.83788 13.3953 8.57266C13.3953 8.30745 13.5006 8.05309 13.6882 7.86556C13.8757 7.67802 14.13 7.57266 14.3953 7.57266H15.3953C15.6605 7.57266 15.9148 7.67802 16.1024 7.86556C16.2899 8.05309 16.3953 8.30745 16.3953 8.57266ZM3.44526 5.03666C3.53751 5.13217 3.64786 5.20835 3.76986 5.26076C3.89186 5.31317 4.02308 5.34076 4.15586 5.34191C4.28864 5.34307 4.42032 5.31777 4.54322 5.26748C4.66611 5.2172 4.77777 5.14295 4.87166 5.04906C4.96555 4.95516 5.0398 4.84351 5.09009 4.72062C5.14037 4.59772 5.16567 4.46604 5.16451 4.33326C5.16336 4.20048 5.13577 4.06926 5.08336 3.94726C5.03096 3.82525 4.95477 3.71491 4.85926 3.62266L4.15226 2.91566C3.96366 2.7335 3.71106 2.63271 3.44886 2.63499C3.18667 2.63727 2.93585 2.74244 2.75044 2.92784C2.56504 3.11325 2.45987 3.36406 2.45759 3.62626C2.45531 3.88846 2.55611 4.14106 2.73826 4.32966L3.44526 5.03666V5.03666ZM3.39526 8.57266C3.39526 8.83788 3.28991 9.09223 3.10237 9.27977C2.91483 9.46731 2.66048 9.57266 2.39526 9.57266H1.39526C1.13005 9.57266 0.875693 9.46731 0.688157 9.27977C0.50062 9.09223 0.395264 8.83788 0.395264 8.57266C0.395264 8.30745 0.50062 8.05309 0.688157 7.86556C0.875693 7.67802 1.13005 7.57266 1.39526 7.57266H2.39526C2.66048 7.57266 2.91483 7.67802 3.10237 7.86556C3.28991 8.05309 3.39526 8.30745 3.39526 8.57266ZM6.39526 14.5727V13.5727H10.3953V14.5727C10.3953 15.1031 10.1845 15.6118 9.80948 15.9869C9.4344 16.3619 8.9257 16.5727 8.39526 16.5727C7.86483 16.5727 7.35612 16.3619 6.98105 15.9869C6.60598 15.6118 6.39526 15.1031 6.39526 14.5727V14.5727ZM10.3953 12.5727C10.4103 12.2327 10.6033 11.9267 10.8723 11.7137C11.5249 11.1989 12.0011 10.4936 12.2344 9.69582C12.4678 8.89801 12.4468 8.04732 12.1744 7.26199C11.9019 6.47666 11.3916 5.79571 10.7144 5.31378C10.0371 4.83185 9.2265 4.57289 8.39526 4.57289C7.56403 4.57289 6.75344 4.83185 6.07617 5.31378C5.3989 5.79571 4.88859 6.47666 4.61617 7.26199C4.34375 8.04732 4.32276 8.89801 4.55612 9.69582C4.78948 10.4936 5.26558 11.1989 5.91826 11.7137C6.18826 11.9267 6.38026 12.2327 6.39426 12.5727H10.3963H10.3953Z" fill="#FFA344"/>
</svg>
