<svg width="17" height="15" viewBox="0 0 17 15" fill="none" xmlns="http://www.w3.org/2000/svg">
<path fill-rule="evenodd" clip-rule="evenodd" d="M6.73512 1.63266C7.50012 0.272663 9.45712 0.272663 10.2211 1.63266L15.8011 11.5527C16.5511 12.8867 15.5881 14.5327 14.0591 14.5327H2.89812C1.36812 14.5327 0.40512 12.8867 1.15512 11.5527L6.73512 1.63266ZM9.47812 11.5337C9.47812 11.7989 9.37276 12.0532 9.18523 12.2408C8.99769 12.4283 8.74334 12.5337 8.47812 12.5337C8.2129 12.5337 7.95855 12.4283 7.77101 12.2408C7.58348 12.0532 7.47812 11.7989 7.47812 11.5337C7.47812 11.2684 7.58348 11.0141 7.77101 10.8266C7.95855 10.639 8.2129 10.5337 8.47812 10.5337C8.74334 10.5337 8.99769 10.639 9.18523 10.8266C9.37276 11.0141 9.47812 11.2684 9.47812 11.5337V11.5337ZM8.47812 3.53366C8.2129 3.53366 7.95855 3.63902 7.77101 3.82656C7.58348 4.01409 7.47812 4.26845 7.47812 4.53366V7.53366C7.47812 7.79888 7.58348 8.05323 7.77101 8.24077C7.95855 8.42831 8.2129 8.53366 8.47812 8.53366C8.74334 8.53366 8.99769 8.42831 9.18523 8.24077C9.37276 8.05323 9.47812 7.79888 9.47812 7.53366V4.53366C9.47812 4.26845 9.37276 4.01409 9.18523 3.82656C8.99769 3.63902 8.74334 3.53366 8.47812 3.53366Z" fill="#FFDC49"/>
</svg>
